<svg  class="svg-icon" style="width: 1.0009765625em; height: 1em;vertical-align: middle;fill: currentColor;overflow: hidden;" viewBox="0 0 1025 1024" version="1.1" xmlns="http://www.w3.org/2000/svg"><path  fill="#ff6b6b" d="M219.683233 347.424359 439.119086 347.424359l0 54.857214L219.683233 402.281573 219.683233 347.424359zM585.404658 347.424359l219.424859 0 0 54.857214L585.404658 402.281573 585.404658 347.424359zM512.258374 658.277575c-64.577468 0-120.301259 37.276798-147.214118 91.432355l-59.413989 0c30.109298-85.193402 111.129737-146.28957 206.628107-146.28957 95.506366 0 176.530803 61.096168 206.636103 146.28957l-59.409991 0C632.571627 695.555373 576.846837 658.277575 512.258374 658.277575zM512.280363 1024c-109.293634 0-210.373279-34.523143-293.525677-92.865655l34.435186-42.671164c73.662032 50.794198 162.845486 80.680605 259.090491 80.680605 252.459729 0 457.135789-204.668064 457.135789-457.135789 0-252.474721-204.676061-457.149782-457.135789-457.149782-252.485716 0-457.149782 204.676061-457.149782 457.149782 0 97.144566 30.519098 187.037673 82.18687 261.090514l-38.473214 40.053443C37.12937 728.579248 0.269368 624.715963 0.269368 512.006997 0.269368 229.236068 229.510434 0 512.280363 0c282.76693 0 511.996002 229.237068 511.996002 512.006997C1024.276365 794.769929 795.047293 1024 512.280363 1024z"  /></svg>